<svg width="24" height="24" viewBox="0 0 24 24" fill="none" xmlns="http://www.w3.org/2000/svg">
<rect width="24" height="24" rx="12" fill="black" fill-opacity="0.3"/>
<g clip-path="url(#clip0_4_167)">
<path d="M16.667 17.5H7.33299C7.20038 17.5 7.07321 17.4473 6.97944 17.3535C6.88567 17.2598 6.83299 17.1326 6.83299 17V16.323C6.83392 15.4916 7.16462 14.6944 7.75253 14.1065C8.34044 13.5186 9.13756 13.1879 9.96899 13.187H14.031C14.8623 13.1881 15.6592 13.5187 16.247 14.1065C16.8347 14.6943 17.1654 15.4912 17.1665 16.3225V17C17.1665 17.1326 17.1138 17.2598 17.02 17.3535C16.9263 17.4473 16.7996 17.5 16.667 17.5ZM12 12.6345C11.4066 12.6345 10.8266 12.4585 10.3333 12.1289C9.83993 11.7993 9.45542 11.3307 9.22835 10.7825C9.00129 10.2344 8.94188 9.63116 9.05764 9.04922C9.17339 8.46728 9.45911 7.93273 9.87867 7.51317C10.2982 7.09361 10.8328 6.80789 11.4147 6.69214C11.9967 6.57638 12.5999 6.63579 13.148 6.86285C13.6962 7.08992 14.1648 7.47443 14.4944 7.96778C14.824 8.46113 15 9.04115 15 9.63449C14.9991 10.4299 14.6827 11.1924 14.1203 11.7548C13.5579 12.3172 12.7954 12.6336 12 12.6345Z" fill="white"/>
</g>
<defs>
<clipPath id="clip0_4_167">
<rect width="12" height="12" fill="white" transform="translate(6 6)"/>
</clipPath>
</defs>
</svg>
